<?xml version="1.0" encoding="utf-8"?>
<!-- Generator: Adobe Illustrator 15.0.2, SVG Export Plug-In . SVG Version: 6.00 Build 0)  -->
<!DOCTYPE svg PUBLIC "-//W3C//DTD SVG 1.1//EN" "http://www.w3.org/Graphics/SVG/1.1/DTD/svg11.dtd">
<svg version="1.1" xmlns="http://www.w3.org/2000/svg" xmlns:xlink="http://www.w3.org/1999/xlink" x="0px" y="0px" width="593px"
	 height="127px" viewBox="0 0 593 127" enable-background="new 0 0 593 127" xml:space="preserve">
<g id="Hintergrund">
</g>
<g id="Hilfslinien_anzeigen">
</g>
<g id="Vordergrund">
</g>
<g id="Logo">
	<g>
		<path fill-rule="evenodd" clip-rule="evenodd" fill="#FFFFFF" d="M344.58,98.893l-14.555,0c-23.014,0-41.668-18.655-41.668-41.668
			s18.654-41.667,41.668-41.667l14.555-0.037c2.316,0,4.193,1.877,4.193,4.194v4.163c0,2.316-1.877,4.194-4.193,4.194l-14.555,0.025
			c-16.087,0-29.128,13.041-29.128,29.128c0,16.087,13.041,29.128,29.128,29.128l14.555-0.011c2.316,0,4.193,1.878,4.193,4.194
			v4.163C348.773,97.015,346.896,98.893,344.58,98.893z M317.218,112.636c-1.544,0-2.796-1.253-2.796-2.796v-3.264
			c0-1.544,1.252-2.796,2.796-2.796h16.021c1.544,0,2.796,1.251,2.796,2.796v3.264c0,1.543-1.252,2.796-2.796,2.796H317.218z"/>
		<path fill="#FFFFFF" d="M415.916,57.988c-3.247,0-5.027-0.967-6.4-3.381c-0.449-0.791-1.181-2.004-1.181-2.004
			c-1.46-2.436,0.415-3.59,2.896-3.59h52.221c11.844,0,13.159,8.493,24.044,8.493c23.927,0,55.255,0,55.255,0
			c1.387,0,3.285,1.111,4.504,2.505c0.97,1.11,1.327,1.494,2.572,2.906c1.09,1.236,0.813,3.564-2.271,3.564h-53.18
			c-12.536,0-14.76-8.494-22.527-8.494C447.947,57.988,415.916,57.988,415.916,57.988z"/>
		<path fill="#FFFFFF" d="M434.271,90.562c-2.48,0-4.531-1.176-5.967-3.649c-3.468-5.968-4.227-7.286-8.125-13.996
			c-0.529-0.911-0.17-4.653,3.077-4.653c17.008,0,50.766,0,50.766,0c13.916,0,9.646,8.494,27.654,8.494c20.917,0,56.696,0,56.696,0
			c3.085,0,4.388,0.691,6.023,2.516c4.373,4.878,5.427,6.079,12.738,14.163c2.101,2.323,1.431,5.457-2.51,5.457
			c-35.834,0-64.678,0-64.678,0c-12.94,0-11.691-8.494-25.451-8.494C463.152,90.399,434.271,90.562,434.271,90.562z"/>
		<g>
			<path fill="#FFFFFF" d="M137.631,19.75c0-2.316,1.877-4.194,4.194-4.194h4.163c2.316,0,4.194,1.877,4.194,4.194v74.948
				c0,2.316-1.877,4.194-4.194,4.194h-4.163c-2.316,0-4.194-1.878-4.194-4.194V19.75L137.631,19.75z"/>
			<path fill="#FFFFFF" d="M143.906,57.225"/>
		</g>
		<path fill="#FFFFFF" d="M187.419,42.384l-14.312,43.957h14.231h14.391L187.419,42.384z M186.825,15.557h0.52h0.668
			c2.136,0,4.083,0.912,4.799,3.115l23.646,72.383c0.908,2.941-0.521,7.837-5.326,7.837h-23.631h-23.796
			c-4.804,0-6.233-4.896-5.326-7.837l23.647-72.383C182.742,16.469,184.689,15.557,186.825,15.557z"/>
		<path fill="#FFFFFF" d="M269.341,19.75c0-2.316,1.878-4.194,4.194-4.194h4.163c2.317,0,4.194,1.877,4.194,4.194v74.948
			c0,2.316-1.877,4.194-4.194,4.194h-4.163c-1.116,0-2.13-0.436-2.881-1.146c-0.382-0.296-0.719-0.663-0.99-1.096l-34.155-54.658
			v52.707c0,2.316-1.877,4.194-4.194,4.194h-4.163c-2.316,0-4.194-1.878-4.194-4.194V19.75c0-2.316,1.878-4.194,4.194-4.194h4.163
			c0.303,0,0.598,0.032,0.882,0.093c1.183,0.168,2.287,0.837,2.97,1.93l34.174,54.69V19.75z"/>
		<path fill="#FFFFFF" d="M92.376,19.75c0-2.316,1.878-4.194,4.194-4.194h4.163c2.316,0,4.194,1.877,4.194,4.194v66.591h22.223
			c2.316,0,4.194,1.878,4.194,4.194v4.163c0,2.316-1.878,4.194-4.194,4.194h-26.417h-3.179H96.57c-2.316,0-4.194-1.878-4.194-4.194
			V19.75z"/>
		<path fill="#FFFFFF" d="M38.976,86.341h30.773V32.988L38.976,86.341z M75.751,98.893h-1.809H31.737h-5.426l-2.29,0
			c-0.764,0-1.912-0.423-1.912-0.423c-2.006-1.158-2.693-3.723-1.535-5.729l42.81-73.938c1.158-2.006,4.318-3.246,6.27-3.246h4.288
			h4.163c2.316,0,4.194,1.877,4.194,4.194v74.948c0,2.316-1.878,4.194-4.194,4.194H75.751z"/>
		<path fill="#FFFFFF" d="M399.168,86.341h-30.771V32.988L399.168,86.341z M362.394,98.893h1.809h42.206h5.425l2.29,0
			c0.763,0,1.912-0.423,1.912-0.423c2.005-1.158,2.692-3.723,1.534-5.729l-42.81-73.938c-1.158-2.006-4.318-3.246-6.271-3.246
			h-4.287h-4.163c-2.316,0-4.194,1.877-4.194,4.194v74.948c0,2.316,1.878,4.194,4.194,4.194H362.394z"/>
		<path fill="#FFFFFF" d="M342.791,28.096l-0.459-0.025L342.791,28.096z"/>
		<path fill="#FFFFFF" d="M403.373,37.692c-2.48,0-4.645-1.59-6.039-3.986c-2.811-4.825-4.14-7.163-8.049-13.847
			c-0.532-0.91-0.093-4.303,3.154-4.303c17.008,0,57.76,0,57.76,0c13.916,0,9.646,8.494,27.654,8.494c20.917,0,33.273,0,33.273,0
			c3.085,0,4.477,0.687,6.144,2.513c4.873,5.338,7.164,7.957,12.784,14.258c1.455,1.632,1.537,5.365-2.404,5.365
			c-35.832,0-46.527,0-46.527,0c-12.939,0-11.69-8.494-25.45-8.494C434.328,37.692,403.373,37.692,403.373,37.692z"/>
	</g>
</g>
</svg>
